<mxfile host="app.diagrams.net" modified="2023-10-18T02:44:21.810Z" agent="Mozilla/5.0 (Macintosh; Intel Mac OS X 10_15_7) AppleWebKit/537.36 (KHTML, like Gecko) Chrome/117.0.0.0 Safari/537.36" etag="DYnoaO97u7ZUq-y8Xl4Y" version="22.0.4" type="github">
  <diagram name="Page-1" id="81_R1TOg2fRfOqU8XQqU">
    <mxGraphModel dx="819" dy="455" grid="1" gridSize="10" guides="1" tooltips="1" connect="1" arrows="1" fold="1" page="1" pageScale="1" pageWidth="850" pageHeight="1100" math="1" shadow="0">
      <root>
        <mxCell id="0" />
        <mxCell id="1" parent="0" />
        <mxCell id="ZHrF-gw26W0FD01k0pS1-119" value="" style="whiteSpace=wrap;html=1;aspect=fixed;dashed=1;strokeColor=#FF8000;" vertex="1" parent="1">
          <mxGeometry x="80" y="80" width="240" height="240" as="geometry" />
        </mxCell>
        <mxCell id="ZHrF-gw26W0FD01k0pS1-1" value="" style="endArrow=none;html=1;rounded=0;startArrow=block;startFill=1;" edge="1" parent="1">
          <mxGeometry width="50" height="50" relative="1" as="geometry">
            <mxPoint x="100" y="360" as="sourcePoint" />
            <mxPoint x="100" y="60" as="targetPoint" />
          </mxGeometry>
        </mxCell>
        <mxCell id="ZHrF-gw26W0FD01k0pS1-2" value="" style="endArrow=none;html=1;rounded=0;startArrow=block;startFill=1;" edge="1" parent="1">
          <mxGeometry width="50" height="50" relative="1" as="geometry">
            <mxPoint x="360" y="100" as="sourcePoint" />
            <mxPoint x="60" y="100" as="targetPoint" />
          </mxGeometry>
        </mxCell>
        <mxCell id="ZHrF-gw26W0FD01k0pS1-3" value="" style="ellipse;whiteSpace=wrap;html=1;aspect=fixed;fillColor=#007FFF;" vertex="1" parent="1">
          <mxGeometry x="95" y="95" width="10" height="10" as="geometry" />
        </mxCell>
        <mxCell id="ZHrF-gw26W0FD01k0pS1-8" value="" style="ellipse;whiteSpace=wrap;html=1;aspect=fixed;fillColor=#007FFF;" vertex="1" parent="1">
          <mxGeometry x="135" y="135" width="10" height="10" as="geometry" />
        </mxCell>
        <mxCell id="ZHrF-gw26W0FD01k0pS1-9" value="" style="ellipse;whiteSpace=wrap;html=1;aspect=fixed;fillColor=#007FFF;" vertex="1" parent="1">
          <mxGeometry x="175" y="175" width="10" height="10" as="geometry" />
        </mxCell>
        <mxCell id="ZHrF-gw26W0FD01k0pS1-10" value="" style="ellipse;whiteSpace=wrap;html=1;aspect=fixed;fillColor=#007FFF;" vertex="1" parent="1">
          <mxGeometry x="215" y="215" width="10" height="10" as="geometry" />
        </mxCell>
        <mxCell id="ZHrF-gw26W0FD01k0pS1-11" value="" style="ellipse;whiteSpace=wrap;html=1;aspect=fixed;fillColor=#007FFF;" vertex="1" parent="1">
          <mxGeometry x="135" y="95" width="10" height="10" as="geometry" />
        </mxCell>
        <mxCell id="ZHrF-gw26W0FD01k0pS1-12" value="" style="ellipse;whiteSpace=wrap;html=1;aspect=fixed;fillColor=#007FFF;" vertex="1" parent="1">
          <mxGeometry x="175" y="95" width="10" height="10" as="geometry" />
        </mxCell>
        <mxCell id="ZHrF-gw26W0FD01k0pS1-13" value="" style="ellipse;whiteSpace=wrap;html=1;aspect=fixed;fillColor=#007FFF;" vertex="1" parent="1">
          <mxGeometry x="215" y="95" width="10" height="10" as="geometry" />
        </mxCell>
        <mxCell id="ZHrF-gw26W0FD01k0pS1-14" value="" style="ellipse;whiteSpace=wrap;html=1;aspect=fixed;fillColor=#007FFF;" vertex="1" parent="1">
          <mxGeometry x="215" y="135" width="10" height="10" as="geometry" />
        </mxCell>
        <mxCell id="ZHrF-gw26W0FD01k0pS1-15" value="" style="ellipse;whiteSpace=wrap;html=1;aspect=fixed;fillColor=#007FFF;" vertex="1" parent="1">
          <mxGeometry x="175" y="135" width="10" height="10" as="geometry" />
        </mxCell>
        <mxCell id="ZHrF-gw26W0FD01k0pS1-16" value="" style="ellipse;whiteSpace=wrap;html=1;aspect=fixed;fillColor=#007FFF;" vertex="1" parent="1">
          <mxGeometry x="215" y="175" width="10" height="10" as="geometry" />
        </mxCell>
        <mxCell id="ZHrF-gw26W0FD01k0pS1-17" value="" style="ellipse;whiteSpace=wrap;html=1;aspect=fixed;fillColor=#007FFF;" vertex="1" parent="1">
          <mxGeometry x="175" y="215" width="10" height="10" as="geometry" />
        </mxCell>
        <mxCell id="ZHrF-gw26W0FD01k0pS1-18" value="" style="ellipse;whiteSpace=wrap;html=1;aspect=fixed;fillColor=#007FFF;" vertex="1" parent="1">
          <mxGeometry x="135" y="215" width="10" height="10" as="geometry" />
        </mxCell>
        <mxCell id="ZHrF-gw26W0FD01k0pS1-19" value="" style="ellipse;whiteSpace=wrap;html=1;aspect=fixed;fillColor=#007FFF;" vertex="1" parent="1">
          <mxGeometry x="135" y="175" width="10" height="10" as="geometry" />
        </mxCell>
        <mxCell id="ZHrF-gw26W0FD01k0pS1-20" value="" style="ellipse;whiteSpace=wrap;html=1;aspect=fixed;fillColor=#007FFF;" vertex="1" parent="1">
          <mxGeometry x="95" y="175" width="10" height="10" as="geometry" />
        </mxCell>
        <mxCell id="ZHrF-gw26W0FD01k0pS1-21" value="" style="ellipse;whiteSpace=wrap;html=1;aspect=fixed;fillColor=#007FFF;" vertex="1" parent="1">
          <mxGeometry x="95" y="215" width="10" height="10" as="geometry" />
        </mxCell>
        <mxCell id="ZHrF-gw26W0FD01k0pS1-22" value="" style="ellipse;whiteSpace=wrap;html=1;aspect=fixed;fillColor=#007FFF;" vertex="1" parent="1">
          <mxGeometry x="95" y="135" width="10" height="10" as="geometry" />
        </mxCell>
        <mxCell id="ZHrF-gw26W0FD01k0pS1-23" value="" style="ellipse;whiteSpace=wrap;html=1;aspect=fixed;fillColor=#007FFF;" vertex="1" parent="1">
          <mxGeometry x="175" y="255" width="10" height="10" as="geometry" />
        </mxCell>
        <mxCell id="ZHrF-gw26W0FD01k0pS1-24" value="" style="ellipse;whiteSpace=wrap;html=1;aspect=fixed;fillColor=#007FFF;" vertex="1" parent="1">
          <mxGeometry x="215" y="295" width="10" height="10" as="geometry" />
        </mxCell>
        <mxCell id="ZHrF-gw26W0FD01k0pS1-25" value="" style="ellipse;whiteSpace=wrap;html=1;aspect=fixed;fillColor=#007FFF;" vertex="1" parent="1">
          <mxGeometry x="215" y="255" width="10" height="10" as="geometry" />
        </mxCell>
        <mxCell id="ZHrF-gw26W0FD01k0pS1-26" value="" style="ellipse;whiteSpace=wrap;html=1;aspect=fixed;fillColor=#007FFF;" vertex="1" parent="1">
          <mxGeometry x="175" y="295" width="10" height="10" as="geometry" />
        </mxCell>
        <mxCell id="ZHrF-gw26W0FD01k0pS1-27" value="" style="ellipse;whiteSpace=wrap;html=1;aspect=fixed;fillColor=#007FFF;" vertex="1" parent="1">
          <mxGeometry x="135" y="295" width="10" height="10" as="geometry" />
        </mxCell>
        <mxCell id="ZHrF-gw26W0FD01k0pS1-28" value="" style="ellipse;whiteSpace=wrap;html=1;aspect=fixed;fillColor=#007FFF;" vertex="1" parent="1">
          <mxGeometry x="135" y="255" width="10" height="10" as="geometry" />
        </mxCell>
        <mxCell id="ZHrF-gw26W0FD01k0pS1-29" value="" style="ellipse;whiteSpace=wrap;html=1;aspect=fixed;fillColor=#007FFF;" vertex="1" parent="1">
          <mxGeometry x="95" y="255" width="10" height="10" as="geometry" />
        </mxCell>
        <mxCell id="ZHrF-gw26W0FD01k0pS1-30" value="" style="ellipse;whiteSpace=wrap;html=1;aspect=fixed;fillColor=#007FFF;" vertex="1" parent="1">
          <mxGeometry x="95" y="295" width="10" height="10" as="geometry" />
        </mxCell>
        <mxCell id="ZHrF-gw26W0FD01k0pS1-55" value="" style="ellipse;whiteSpace=wrap;html=1;aspect=fixed;fillColor=#007FFF;" vertex="1" parent="1">
          <mxGeometry x="255" y="95" width="10" height="10" as="geometry" />
        </mxCell>
        <mxCell id="ZHrF-gw26W0FD01k0pS1-56" value="" style="ellipse;whiteSpace=wrap;html=1;aspect=fixed;fillColor=#007FFF;" vertex="1" parent="1">
          <mxGeometry x="295" y="135" width="10" height="10" as="geometry" />
        </mxCell>
        <mxCell id="ZHrF-gw26W0FD01k0pS1-59" value="" style="ellipse;whiteSpace=wrap;html=1;aspect=fixed;fillColor=#007FFF;" vertex="1" parent="1">
          <mxGeometry x="295" y="95" width="10" height="10" as="geometry" />
        </mxCell>
        <mxCell id="ZHrF-gw26W0FD01k0pS1-66" value="" style="ellipse;whiteSpace=wrap;html=1;aspect=fixed;fillColor=#007FFF;" vertex="1" parent="1">
          <mxGeometry x="295" y="215" width="10" height="10" as="geometry" />
        </mxCell>
        <mxCell id="ZHrF-gw26W0FD01k0pS1-67" value="" style="ellipse;whiteSpace=wrap;html=1;aspect=fixed;fillColor=#007FFF;" vertex="1" parent="1">
          <mxGeometry x="295" y="175" width="10" height="10" as="geometry" />
        </mxCell>
        <mxCell id="ZHrF-gw26W0FD01k0pS1-68" value="" style="ellipse;whiteSpace=wrap;html=1;aspect=fixed;fillColor=#007FFF;" vertex="1" parent="1">
          <mxGeometry x="255" y="175" width="10" height="10" as="geometry" />
        </mxCell>
        <mxCell id="ZHrF-gw26W0FD01k0pS1-69" value="" style="ellipse;whiteSpace=wrap;html=1;aspect=fixed;fillColor=#007FFF;" vertex="1" parent="1">
          <mxGeometry x="255" y="215" width="10" height="10" as="geometry" />
        </mxCell>
        <mxCell id="ZHrF-gw26W0FD01k0pS1-70" value="" style="ellipse;whiteSpace=wrap;html=1;aspect=fixed;fillColor=#007FFF;" vertex="1" parent="1">
          <mxGeometry x="255" y="135" width="10" height="10" as="geometry" />
        </mxCell>
        <mxCell id="ZHrF-gw26W0FD01k0pS1-75" value="" style="ellipse;whiteSpace=wrap;html=1;aspect=fixed;fillColor=#007FFF;" vertex="1" parent="1">
          <mxGeometry x="295" y="295" width="10" height="10" as="geometry" />
        </mxCell>
        <mxCell id="ZHrF-gw26W0FD01k0pS1-76" value="" style="ellipse;whiteSpace=wrap;html=1;aspect=fixed;fillColor=#007FFF;" vertex="1" parent="1">
          <mxGeometry x="295" y="255" width="10" height="10" as="geometry" />
        </mxCell>
        <mxCell id="ZHrF-gw26W0FD01k0pS1-77" value="" style="ellipse;whiteSpace=wrap;html=1;aspect=fixed;fillColor=#007FFF;" vertex="1" parent="1">
          <mxGeometry x="255" y="255" width="10" height="10" as="geometry" />
        </mxCell>
        <mxCell id="ZHrF-gw26W0FD01k0pS1-78" value="" style="ellipse;whiteSpace=wrap;html=1;aspect=fixed;fillColor=#007FFF;" vertex="1" parent="1">
          <mxGeometry x="255" y="295" width="10" height="10" as="geometry" />
        </mxCell>
        <mxCell id="ZHrF-gw26W0FD01k0pS1-86" value="" style="rhombus;whiteSpace=wrap;html=1;fillColor=#00FF00;" vertex="1" parent="1">
          <mxGeometry x="115" y="115" width="10" height="10" as="geometry" />
        </mxCell>
        <mxCell id="ZHrF-gw26W0FD01k0pS1-96" value="" style="rhombus;whiteSpace=wrap;html=1;fillColor=#00FF00;" vertex="1" parent="1">
          <mxGeometry x="115" y="195" width="10" height="10" as="geometry" />
        </mxCell>
        <mxCell id="ZHrF-gw26W0FD01k0pS1-97" value="" style="rhombus;whiteSpace=wrap;html=1;fillColor=#00FF00;" vertex="1" parent="1">
          <mxGeometry x="115" y="275" width="10" height="10" as="geometry" />
        </mxCell>
        <mxCell id="ZHrF-gw26W0FD01k0pS1-99" value="" style="rhombus;whiteSpace=wrap;html=1;fillColor=#00FF00;" vertex="1" parent="1">
          <mxGeometry x="195" y="115" width="10" height="10" as="geometry" />
        </mxCell>
        <mxCell id="ZHrF-gw26W0FD01k0pS1-100" value="" style="rhombus;whiteSpace=wrap;html=1;fillColor=#00FF00;" vertex="1" parent="1">
          <mxGeometry x="195" y="195" width="10" height="10" as="geometry" />
        </mxCell>
        <mxCell id="ZHrF-gw26W0FD01k0pS1-101" value="" style="rhombus;whiteSpace=wrap;html=1;fillColor=#00FF00;" vertex="1" parent="1">
          <mxGeometry x="195" y="275" width="10" height="10" as="geometry" />
        </mxCell>
        <mxCell id="ZHrF-gw26W0FD01k0pS1-102" value="" style="rhombus;whiteSpace=wrap;html=1;fillColor=#00FF00;" vertex="1" parent="1">
          <mxGeometry x="275" y="115" width="10" height="10" as="geometry" />
        </mxCell>
        <mxCell id="ZHrF-gw26W0FD01k0pS1-103" value="" style="rhombus;whiteSpace=wrap;html=1;fillColor=#00FF00;" vertex="1" parent="1">
          <mxGeometry x="275" y="195" width="10" height="10" as="geometry" />
        </mxCell>
        <mxCell id="ZHrF-gw26W0FD01k0pS1-104" value="" style="rhombus;whiteSpace=wrap;html=1;fillColor=#00FF00;" vertex="1" parent="1">
          <mxGeometry x="275" y="275" width="10" height="10" as="geometry" />
        </mxCell>
        <mxCell id="ZHrF-gw26W0FD01k0pS1-105" value="0" style="text;html=1;strokeColor=none;fillColor=none;align=center;verticalAlign=middle;whiteSpace=wrap;rounded=0;" vertex="1" parent="1">
          <mxGeometry x="80" y="30" width="40" height="30" as="geometry" />
        </mxCell>
        <mxCell id="ZHrF-gw26W0FD01k0pS1-106" value="1" style="text;html=1;strokeColor=none;fillColor=none;align=center;verticalAlign=middle;whiteSpace=wrap;rounded=0;" vertex="1" parent="1">
          <mxGeometry x="120" y="30" width="40" height="30" as="geometry" />
        </mxCell>
        <mxCell id="ZHrF-gw26W0FD01k0pS1-107" value="2" style="text;html=1;strokeColor=none;fillColor=none;align=center;verticalAlign=middle;whiteSpace=wrap;rounded=0;" vertex="1" parent="1">
          <mxGeometry x="160" y="30" width="40" height="30" as="geometry" />
        </mxCell>
        <mxCell id="ZHrF-gw26W0FD01k0pS1-108" value="3" style="text;html=1;strokeColor=none;fillColor=none;align=center;verticalAlign=middle;whiteSpace=wrap;rounded=0;" vertex="1" parent="1">
          <mxGeometry x="200" y="30" width="40" height="30" as="geometry" />
        </mxCell>
        <mxCell id="ZHrF-gw26W0FD01k0pS1-109" value="4" style="text;html=1;strokeColor=none;fillColor=none;align=center;verticalAlign=middle;whiteSpace=wrap;rounded=0;" vertex="1" parent="1">
          <mxGeometry x="240" y="30" width="40" height="30" as="geometry" />
        </mxCell>
        <mxCell id="ZHrF-gw26W0FD01k0pS1-110" value="5" style="text;html=1;strokeColor=none;fillColor=none;align=center;verticalAlign=middle;whiteSpace=wrap;rounded=0;" vertex="1" parent="1">
          <mxGeometry x="280" y="30" width="40" height="30" as="geometry" />
        </mxCell>
        <mxCell id="ZHrF-gw26W0FD01k0pS1-111" value="0" style="text;html=1;strokeColor=none;fillColor=none;align=center;verticalAlign=middle;whiteSpace=wrap;rounded=0;" vertex="1" parent="1">
          <mxGeometry x="20" y="85" width="40" height="30" as="geometry" />
        </mxCell>
        <mxCell id="ZHrF-gw26W0FD01k0pS1-112" value="1" style="text;html=1;strokeColor=none;fillColor=none;align=center;verticalAlign=middle;whiteSpace=wrap;rounded=0;" vertex="1" parent="1">
          <mxGeometry x="20" y="125" width="40" height="30" as="geometry" />
        </mxCell>
        <mxCell id="ZHrF-gw26W0FD01k0pS1-113" value="2" style="text;html=1;strokeColor=none;fillColor=none;align=center;verticalAlign=middle;whiteSpace=wrap;rounded=0;" vertex="1" parent="1">
          <mxGeometry x="20" y="165" width="40" height="30" as="geometry" />
        </mxCell>
        <mxCell id="ZHrF-gw26W0FD01k0pS1-114" value="3" style="text;html=1;strokeColor=none;fillColor=none;align=center;verticalAlign=middle;whiteSpace=wrap;rounded=0;" vertex="1" parent="1">
          <mxGeometry x="20" y="205" width="40" height="30" as="geometry" />
        </mxCell>
        <mxCell id="ZHrF-gw26W0FD01k0pS1-115" value="4" style="text;html=1;strokeColor=none;fillColor=none;align=center;verticalAlign=middle;whiteSpace=wrap;rounded=0;" vertex="1" parent="1">
          <mxGeometry x="20" y="245" width="40" height="30" as="geometry" />
        </mxCell>
        <mxCell id="ZHrF-gw26W0FD01k0pS1-116" value="5" style="text;html=1;strokeColor=none;fillColor=none;align=center;verticalAlign=middle;whiteSpace=wrap;rounded=0;" vertex="1" parent="1">
          <mxGeometry x="20" y="285" width="40" height="30" as="geometry" />
        </mxCell>
        <mxCell id="ZHrF-gw26W0FD01k0pS1-117" value="x" style="text;html=1;strokeColor=none;fillColor=none;align=center;verticalAlign=middle;whiteSpace=wrap;rounded=0;" vertex="1" parent="1">
          <mxGeometry x="360" y="85" width="40" height="30" as="geometry" />
        </mxCell>
        <mxCell id="ZHrF-gw26W0FD01k0pS1-118" value="y" style="text;html=1;strokeColor=none;fillColor=none;align=center;verticalAlign=middle;whiteSpace=wrap;rounded=0;" vertex="1" parent="1">
          <mxGeometry x="80" y="360" width="40" height="30" as="geometry" />
        </mxCell>
        <mxCell id="ZHrF-gw26W0FD01k0pS1-121" value="" style="endArrow=none;dashed=1;html=1;rounded=0;fillColor=#ffe6cc;strokeColor=#FF8000;" edge="1" parent="1">
          <mxGeometry width="50" height="50" relative="1" as="geometry">
            <mxPoint x="426" y="219.70999999999998" as="sourcePoint" />
            <mxPoint x="456" y="220" as="targetPoint" />
          </mxGeometry>
        </mxCell>
        <mxCell id="ZHrF-gw26W0FD01k0pS1-122" value="vispy node texture" style="text;html=1;strokeColor=none;fillColor=none;align=left;verticalAlign=middle;whiteSpace=wrap;rounded=0;" vertex="1" parent="1">
          <mxGeometry x="460" y="205" width="190" height="30" as="geometry" />
        </mxCell>
        <mxCell id="ZHrF-gw26W0FD01k0pS1-123" value="" style="ellipse;whiteSpace=wrap;html=1;aspect=fixed;fillColor=#007FFF;" vertex="1" parent="1">
          <mxGeometry x="435" y="95" width="10" height="10" as="geometry" />
        </mxCell>
        <mxCell id="ZHrF-gw26W0FD01k0pS1-125" value="samples: level 0" style="text;html=1;strokeColor=none;fillColor=none;align=left;verticalAlign=middle;whiteSpace=wrap;rounded=0;" vertex="1" parent="1">
          <mxGeometry x="460" y="85" width="180" height="30" as="geometry" />
        </mxCell>
        <mxCell id="ZHrF-gw26W0FD01k0pS1-126" value="" style="rhombus;whiteSpace=wrap;html=1;fillColor=#00FF00;" vertex="1" parent="1">
          <mxGeometry x="435" y="155" width="10" height="10" as="geometry" />
        </mxCell>
        <mxCell id="ZHrF-gw26W0FD01k0pS1-127" value="samples: level 1 (downsample factor of 2)" style="text;html=1;strokeColor=none;fillColor=none;align=left;verticalAlign=middle;whiteSpace=wrap;rounded=0;" vertex="1" parent="1">
          <mxGeometry x="460" y="145" width="260" height="30" as="geometry" />
        </mxCell>
        <mxCell id="ZHrF-gw26W0FD01k0pS1-129" value="tile2data at level 1&lt;br&gt;$$\begin{bmatrix} 2 &amp;amp; 0 &amp;amp; 0.5 \\ 0 &amp;amp; 2 &amp;amp; 0.5 \\ 0 &amp;amp; 0 &amp;amp; 1 \end{bmatrix}$$" style="text;html=1;strokeColor=none;fillColor=none;align=center;verticalAlign=middle;whiteSpace=wrap;rounded=0;" vertex="1" parent="1">
          <mxGeometry x="530" y="270" width="150" height="130" as="geometry" />
        </mxCell>
        <mxCell id="ZHrF-gw26W0FD01k0pS1-130" value="tile2data at level 0&lt;br&gt;$$\begin{bmatrix} 1 &amp;amp; 0 &amp;amp; 0 \\ 0 &amp;amp; 1 &amp;amp; 0 \\ 0 &amp;amp; 0 &amp;amp; 1 \end{bmatrix}$$" style="text;html=1;strokeColor=none;fillColor=none;align=center;verticalAlign=middle;whiteSpace=wrap;rounded=0;" vertex="1" parent="1">
          <mxGeometry x="365" y="270" width="150" height="130" as="geometry" />
        </mxCell>
      </root>
    </mxGraphModel>
  </diagram>
</mxfile>
